<?xml version="1.0" encoding="utf-8"?>
<!-- Generator: Adobe Illustrator 17.1.0, SVG Export Plug-In . SVG Version: 6.00 Build 0)  -->
<!DOCTYPE svg PUBLIC "-//W3C//DTD SVG 1.1//EN" "http://www.w3.org/Graphics/SVG/1.1/DTD/svg11.dtd">
<svg version="1.1" xmlns="http://www.w3.org/2000/svg" xmlns:xlink="http://www.w3.org/1999/xlink" x="0px" y="0px"
	 viewBox="0 0 466 558" enable-background="new 0 0 466 558" xml:space="preserve">
<symbol  id="Regal_Vector_Pack_02" viewBox="-95.2 -31.9 190.4 63.7">
	<path fill-rule="evenodd" clip-rule="evenodd" fill="#FFFFFF" d="M93.2-29.9c-0.6,0.4-1.3,0.7-1.9,1.1c-13.7,7.7-28.2,13.5-43,17.5
		c-0.3,0.1-0.6,0.2-0.9,0.2c0,0.3,0,0.6,0,0.8c0,7.6,0,15.2,0,22.7c0,0.3,0,0.6,0,0.8c0.3-0.1,0.6-0.2,0.9-0.2
		c14.9-4,29.4-9.8,43.1-17.5c0.6-0.4,1.3-0.7,1.9-1.1c-0.4-0.2-0.9-0.4-1.3-0.7c-3.4-1.7-6.8-3.5-10.2-5.5c3.4-5.2,6.8-10.6,10.1-16
		C92.3-28.4,92.7-29.2,93.2-29.9L93.2-29.9z"/>
	<path fill-rule="evenodd" clip-rule="evenodd" fill="#FFFFFF" d="M-46.9-11c-0.3-0.1-0.6-0.1-0.9-0.2c-15-4-29.6-9.8-43.5-17.6
		c-0.6-0.4-1.3-0.7-1.9-1.1c0.4,0.7,0.9,1.5,1.3,2.2c3.3,5.4,6.7,10.8,10.1,16c-3.5,1.9-6.9,3.8-10.2,5.5c-0.5,0.2-0.9,0.5-1.3,0.7
		c0.6,0.4,1.3,0.7,1.9,1.1c13.9,7.8,28.6,13.7,43.6,17.7c0.3,0.1,0.6,0.1,0.9,0.2c0-0.3,0-0.6,0-0.8c0-7.6,0-15.2,0-22.7
		C-46.9-10.5-46.9-10.7-46.9-11L-46.9-11z"/>
	<path fill="#FFFFFF" d="M-62.8-4.6c5.2,1.8,10.4,3.5,15.7,4.8c0-3.5,0-7,0-10.4C-52.4-8.1-57.6-6.2-62.8-4.6z"/>
	<path fill="#221F1F" d="M-47.8,12.3c0-7.6,0-15.2,0-22.7c-15-4-29.6-9.8-43.5-17.6c3.5,5.7,7.1,11.4,10.7,16.9
		c-3.7,2.1-7.3,4-10.8,5.8C-77.5,2.5-62.8,8.4-47.8,12.3 M-46.1,14.5c-0.6-0.1-1.1-0.3-1.7-0.4c-15-4-29.7-9.9-43.6-17.6
		c-1.3-0.7-2.5-1.4-3.8-2.2c0.9-0.4,1.8-0.9,2.7-1.3c3.2-1.6,6.4-3.3,9.7-5.1c-3.2-5-6.4-10-9.5-15.2c-0.9-1.5-1.8-3-2.7-4.4
		c1.3,0.7,2.5,1.5,3.8,2.2c13.9,7.8,28.5,13.6,43.5,17.6c0.6,0.2,1.1,0.3,1.7,0.4c0,0.6,0,1.1,0,1.7c0,7.6,0,15.2,0,22.7
		C-46.1,13.4-46.1,13.9-46.1,14.5L-46.1,14.5z"/>
	<path fill="#FFFFFF" d="M63.2-4.7C58-2.8,52.7-1.2,47.4,0.2c0-3.5,0-7,0-10.4C52.7-8.2,58-6.3,63.2-4.7z"/>
	<path fill="#221F1F" d="M91.4-5.3c-3.6-1.8-7.2-3.8-10.8-5.8c3.6-5.5,7.2-11.1,10.7-16.9c-13.7,7.7-28.2,13.5-43,17.5
		c0,7.6,0,15.2,0,22.7C63.1,8.2,77.6,2.4,91.4-5.3 M95.2-5.8c-1.3,0.7-2.5,1.5-3.8,2.2C77.6,4.1,63.1,9.9,48.3,13.9
		c-0.6,0.2-1.1,0.3-1.7,0.4c0-0.6,0-1.1,0-1.7c0-7.6,0-15.2,0-22.7c0-0.6,0-1.1,0-1.7c0.6-0.1,1.1-0.3,1.7-0.4
		c14.8-4,29.3-9.8,43-17.5c1.3-0.7,2.5-1.4,3.8-2.2c-0.9,1.5-1.8,3-2.7,4.4c-3.1,5.2-6.3,10.2-9.5,15.2c3.3,1.8,6.5,3.5,9.7,5.1
		C93.4-6.7,94.3-6.2,95.2-5.8L95.2-5.8z"/>
	<g>
		<path fill-rule="evenodd" clip-rule="evenodd" fill="#FFFFFF" d="M63.6-4.6c-0.3,0.1-0.6,0.2-0.8,0.3
			C22.4,10.1-21.9,10.2-62.3-4.1c-0.3-0.1-0.6-0.2-0.8-0.3c0,0.3,0,0.6,0,0.8c0,7.6,0,15.2,0,22.7c0,0.3,0,0.6,0,0.8
			c0.3,0.1,0.6,0.2,0.8,0.3c40.5,14.3,84.7,14.2,125.1-0.2c0.3-0.1,0.6-0.2,0.8-0.3c0-0.3,0-0.6,0-0.8c0-7.6,0-15.2,0-22.7
			C63.6-4,63.6-4.3,63.6-4.6L63.6-4.6z"/>
		<path fill="#221F1F" d="M62.8,19.3c0-7.6,0-15.2,0-22.7C22.4,11-21.9,11-62.3-3.3c0,7.6,0,15.2,0,22.7
			C-21.9,33.8,22.4,33.7,62.8,19.3 M64.5,20.4c-0.6,0.2-1.1,0.4-1.7,0.6C22.4,35.4-21.9,35.5-62.3,21.2c-0.6-0.2-1.1-0.4-1.7-0.6
			c0-0.6,0-1.1,0-1.7c0-7.6,0-15.2,0-22.7c0-0.6,0-1.1,0-1.7c0.6,0.2,1.1,0.4,1.7,0.6C-21.9,9.3,22.4,9.3,62.8-5.1
			c0.6-0.2,1.1-0.4,1.7-0.6c0,0.6,0,1.1,0,1.7c0,7.6,0,15.2,0,22.7C64.5,19.3,64.5,19.8,64.5,20.4L64.5,20.4z"/>
	</g>
	<path fill="#221F1F" d="M-64-5.6c0.3,0.6,0.6,1.2,0.9,1.7c5.4-1.7,10.8-3.6,16.3-5.8c-0.3-0.6-0.6-1.1-0.9-1.7
		C-53.2-9.2-58.6-7.3-64-5.6L-64-5.6z"/>
	<path fill="#221F1F" d="M64.4-5.8c-0.3,0.6-0.6,1.2-0.9,1.7c-5.4-1.7-10.8-3.6-16.3-5.8c0.3-0.6,0.6-1.1,0.9-1.7
		C53.6-9.3,59-7.4,64.4-5.8L64.4-5.8z"/>
</symbol>
<g id="Layer_1" display="none">
	
		<use xlink:href="#Regal_Vector_Pack_02"  width="190.4" height="63.7" x="-95.2" y="-31.9" transform="matrix(2.4442 0 0 -1.5202 233.0011 49.4314)" display="inline" overflow="visible"/>
</g>
<g id="Layer_2">
	<g>
		<path fill="#C33127" d="M67,105.8c0-24.4,18.6-38.6,40.8-38.6c5.8,0,11.4,0.8,15.4,1.8c4,1,6.8,2,8.8,2c2.2,0,3.6-1.6,4.6-3h14.8
			l14.8,20v42H153l-18-16.8c-1.6-8.8-5-17.6-13.2-17.6c-7.2,0-10.6,4.2-10.6,10.2c0,5.2,1.8,8.6,15.2,13.2
			c28.2,9.8,44.6,28.4,44.6,58.6c0,25.2-19.2,42-39.2,42c-8.4,0-16.4-2-20.4-4.8c-3.2-2.2-6.6-4-9.2-4c-2.8,0-4.6,5.4-5.8,7.6H79
			L65.6,201v-49.4h17.6c3.4,7.2,8.8,15.8,12,19.6c3.8,4.8,10,9.6,17.6,9.6c4.2,0,10-2.4,10-7.6c0-7.4-16.6-11-24.6-15.4
			C84.2,150,67,133,67,105.8z M92.8,99.4c0-7.8,5.2-16.4,16.4-16.4c8.6,0,18.4,6.6,22,11.2c3,3.8,5.4,9.4,6.8,15.4h9.8V72H138
			c-1.4,1.4-3,3-5.4,3c-3,0-6-1-9.2-2c-3.8-1.2-10.4-2.4-16.6-2.4c-19.8,0-36,13.2-36,34.4c0,20,7.2,31.2,25.2,38.8l15.6,6.4
			c6.6,2.8,17.2,7.6,17.2,19c0,8-6.2,15.2-14.6,15.2c-13.6,0-23.6-6.6-28.6-14.6c-3.2-5-5.2-9.4-6.2-14.8h-10v43h10
			c1.8-3.6,4-7.6,7.2-7.6c3.2,0,6.8,1.8,11.4,4c4.4,2.2,11.2,4.8,18.8,4.8c20.4,0,36-15.2,36-37.8c0-24-11.6-34.8-37.8-42.6
			C99.8,114.4,92.6,110.8,92.8,99.4z M136.6,132.8c-6.4-1.6-10.2-1.6-13.8,0c-4.2-1.6-8.6-1.6-13.6,0c11.4,2.4,20.4,4,26.2,6.2
			c6.6,10,8.2,20.8,2.8,36.4c-0.4-15.2-7.2-26.4-14.4-28.4c-1.4-4.4-4.2-9.4-15.4-14.2c-4-1.6-8.6-1.6-12.6,0
			c-4.2-1.6-7.2-1.6-9.8,0c-9-7.4-11.6-15.6-11.6-27.8c0-19,15-31,32-31c5.2,0,9.6,0.4,13.4,1.4c4,1.2,9.2,3,13.2,3c3,0,5-1.6,6.2-3
			h5.2v30.8h-3.8c-2.6-13.6-15.8-26.6-31.4-26.6c-14.4,0-19.8,10.4-19.8,19.2c0,10.6,4,16.8,16.6,21
			C118.8,124.2,130.2,127.4,136.6,132.8z M109.2,132.4c-12.8-6.4-18.4-12-18.2-20c-5.2-3.6-7.6-9.6-7.4-20.8
			c-2.8,7.6-5,16.6-4.8,24.2c5.4,7.4,13.8,12.4,29.6,16.6H109.2z"/>
	</g>
</g>
<g id="Layer_3">
	<g>
		<path fill="#C33127" d="M302.4,380.4c0-9.2-2.8-12-6.6-12.4l-6.4-1.2v-18.4h61.8c32.4,0,58.4,36.6,58.4,84.4
			c0,38.2-27,65.6-49.8,65.6h-57.6l-12.8-16.8v-18.4l7.8-1.2c3.8-0.8,5.2-6.4,5.2-13.4V380.4z M305.8,449.6c0,9.2-1.6,15-6.4,16
			l-6.4,1V478h49.4c28.2,0,49-27.4,49-61.6c0-46.6-17.4-64.4-42-64.4H293v11.4l6.4,1c4,0.8,6.4,6.6,6.4,16V449.6z M309.4,380.4
			c0-15.2-4.2-19-7.8-19.8l-5.2-0.8v-4.4h53.2c33.4,0,37.4,34.6,38.2,57.4c-2.8-1.6-5.6-1.6-9.6,0c2.2,2.8,4.6,6.6,5.6,9.8
			c-1.4,11.4-7.4,21.8-16.6,32.8c5.6-12.8,6.6-23.2,3.4-32.8c3-2.4,6-6,6.8-9.8c-3.6-1.6-6.8-1.6-9.2,0c0.8-39.8-7.8-50-20.4-50
			h-13.2c-8,0-9.8,8.6-9.8,18.6v31.4c-2.4-1.6-4.8-1.6-7.6,0c1,2.6,3.4,6.8,6.2,9.8c-2.8,6.6-5.2,15.8-6.4,32.8
			c-1.6-17-3.8-26.2-6.4-32.8c2.6-3,4.8-7.2,6-9.8c-3-1.6-5.4-1.6-7.2,0V380.4z M317.2,412.6c1.4-7,3.6-11,6.2-14
			c-2.6-4.8-4.8-12-6.4-27c-1.6,15-3.8,22.2-6.4,27c2.6,3,4.8,7,6,14H317.2z M348.8,366.2c8.6,0,15.6,8,15.6,48.2
			c0,19.6-6,49.2-20.6,49.2h-9.2c-4.2,0-6.2-4.8-6.2-14v-68.2c0-9.2,0.4-15.2,6.8-15.2H348.8z M352,386.6c-3,0-5.4,3.6-5.4,9.4v57.4
			c0,1.8,0.8,3.6,2.8,3.6c2.4,0,11.6-19,11.6-42.6c0-20.4-1.4-27.8-4.4-27.8H352z M378.2,412.6c2.2-4.2,4-9.2,5.6-14
			c-1.8-5.8-4.8-13-11.8-27c2.2,14.8,2.2,22-1.4,27c3.6,3.6,6.2,9.4,6.8,14H378.2z"/>
	</g>
</g>
<g id="Layer_4">
	<g>
		<path d="M272.6,71.2c1.5,0,2.8,0.2,4.1,0.6c1.3,0.4,2.4,0.9,3.4,1.7c1,0.7,1.7,1.7,2.3,2.8s0.8,2.5,0.8,4s-0.3,2.8-0.8,4
			c-0.6,1.1-1.3,2.1-2.3,2.8c-1,0.7-2.1,1.3-3.4,1.6c-1.3,0.3-2.7,0.5-4.1,0.5c-1.5,0-2.8-0.2-4.1-0.5c-1.3-0.3-2.4-0.9-3.4-1.6
			c-1-0.7-1.7-1.7-2.3-2.8c-0.6-1.1-0.8-2.5-0.8-4s0.3-2.8,0.8-4c0.6-1.1,1.3-2.1,2.3-2.8c1-0.7,2.1-1.3,3.4-1.7
			C269.8,71.3,271.2,71.2,272.6,71.2z M272.6,74.1c-0.9,0-1.7,0.1-2.5,0.4c-0.8,0.3-1.5,0.7-2.2,1.2c-0.6,0.5-1.2,1.2-1.5,1.9
			c-0.4,0.7-0.6,1.6-0.6,2.6s0.2,1.8,0.6,2.6c0.4,0.7,0.9,1.4,1.5,1.9c0.6,0.5,1.4,0.9,2.2,1.2c0.8,0.3,1.6,0.4,2.5,0.4
			c0.9,0,1.7-0.1,2.5-0.4c0.8-0.3,1.5-0.7,2.2-1.2s1.2-1.2,1.5-1.9c0.4-0.7,0.6-1.6,0.6-2.6s-0.2-1.8-0.6-2.6s-0.9-1.4-1.5-1.9
			c-0.6-0.5-1.4-0.9-2.2-1.2C274.3,74.3,273.5,74.1,272.6,74.1z"/>
		<path d="M299,71.4c2.4,0,4.2,0.4,5.6,1.2c1.3,0.8,2,2.1,2,4c0,0.7-0.1,1.4-0.4,1.9c-0.3,0.6-0.6,1-1.1,1.5c-0.4,0.4-0.9,0.7-1.5,1
			c-0.5,0.3-1.1,0.4-1.6,0.6l3.9,5.7c0.2,0.3,0.4,0.5,0.7,0.7c0.3,0.1,0.5,0.3,0.8,0.3V89h-6.1v-0.7c0.3,0,0.5-0.1,0.5-0.4
			c0-0.3-0.2-0.7-0.6-1.2l-3.2-4.7h-5.6v5.7c0,0.2,0.1,0.4,0.3,0.5c0.2,0.1,0.3,0.1,0.5,0.1V89H288v-0.7c0.5,0,0.7-0.2,0.7-0.6v-15
			c0-0.4-0.2-0.6-0.7-0.6v-0.7H299z M299,79c2.6,0,3.9-0.8,3.9-2.5c0-0.7-0.3-1.2-0.9-1.6c-0.6-0.4-1.6-0.6-3-0.6h-6.3V79H299z"/>
		<path d="M312.9,88.3c0.4,0,0.7,0,0.9-0.1c0.2-0.1,0.2-0.2,0.2-0.5v-15c0-0.2-0.1-0.4-0.2-0.5c-0.2-0.1-0.5-0.1-0.9-0.1v-0.7h6.1
			v0.7c-0.7,0-1.1,0.2-1.1,0.6v15c0,0.4,0.4,0.6,1.1,0.6V89h-6.1V88.3z"/>
		<path d="M341.5,77.2l-0.5-0.3c0.1-0.3,0.1-0.4,0.1-0.4c0-0.2-0.2-0.5-0.5-0.8c-0.3-0.3-0.8-0.5-1.4-0.8c-0.6-0.2-1.2-0.4-1.9-0.6
			c-0.7-0.1-1.4-0.2-2.1-0.2c-1,0-1.9,0.1-2.8,0.3c-0.9,0.2-1.7,0.6-2.3,1.1c-0.7,0.5-1.2,1.1-1.6,1.9c-0.4,0.8-0.6,1.7-0.6,2.8
			c0,1.1,0.2,2.1,0.6,2.8c0.4,0.8,1,1.4,1.7,1.8c0.7,0.5,1.4,0.8,2.3,1c0.8,0.2,1.6,0.3,2.4,0.3c1.1,0,2.2-0.1,3.3-0.2
			s2-0.5,2.8-0.9v-2.5h-4.1c-0.3,0-0.5,0.1-0.8,0.2c-0.2,0.1-0.3,0.3-0.4,0.7h-0.7v-4.1h0.7c0.1,0.3,0.2,0.4,0.4,0.5
			c0.2,0.1,0.5,0.1,0.8,0.1h7.8v0.7c-0.2,0.1-0.4,0.2-0.5,0.4c-0.1,0.1-0.1,0.3-0.1,0.6v3.8c0,0.2,0,0.4,0.1,0.5
			c0.1,0.1,0.2,0.2,0.5,0.3v0.5c-0.2,0.2-0.6,0.4-1.1,0.7c-0.5,0.3-1.2,0.6-2,0.8c-0.8,0.3-1.7,0.5-2.7,0.7c-1,0.2-2.2,0.3-3.5,0.3
			c-1.7,0-3.3-0.2-4.7-0.6c-1.4-0.4-2.6-1-3.6-1.7c-1-0.8-1.7-1.7-2.2-2.8c-0.5-1.1-0.8-2.4-0.8-3.8c0-1.4,0.3-2.7,0.8-3.8
			c0.5-1.1,1.3-2.1,2.2-2.8c1-0.8,2.2-1.4,3.6-1.8c1.4-0.4,3-0.6,4.7-0.6c1,0,2,0.1,2.8,0.3c0.8,0.2,1.5,0.4,2.1,0.6
			c0.6,0.2,1.1,0.4,1.5,0.6c0.4,0.2,0.7,0.3,0.8,0.3c0.2,0,0.4,0,0.5-0.1c0.1,0,0.2-0.1,0.4-0.3l0.5,0.2L341.5,77.2z"/>
		<path d="M350.7,88.3c0.4,0,0.7,0,0.9-0.1c0.2-0.1,0.2-0.2,0.2-0.5v-15c0-0.2-0.1-0.4-0.2-0.5c-0.2-0.1-0.5-0.1-0.9-0.1v-0.7h6.1
			v0.7c-0.7,0-1.1,0.2-1.1,0.6v15c0,0.4,0.4,0.6,1.1,0.6V89h-6.1V88.3z"/>
		<path d="M363.6,88.3c0.5,0,0.7-0.2,0.7-0.6v-15c0-0.4-0.2-0.6-0.7-0.6v-0.7h5.9v0.7c-0.2,0-0.3,0.1-0.3,0.2c0,0.1,0.3,0.5,0.9,1.1
			l9.6,10.2V72.7c0-0.4-0.3-0.6-0.8-0.6v-0.7h4.9v0.7c-0.5,0-0.7,0.2-0.7,0.6v15c0,0.4,0.2,0.6,0.7,0.6V89h-5.2v-0.7
			c0.2,0,0.3-0.1,0.3-0.2c0-0.1-0.1-0.3-0.4-0.6c-0.3-0.3-0.5-0.6-0.9-0.9L367.7,76v11.6c0,0.4,0.3,0.6,0.8,0.6V89h-4.9V88.3z"/>
		<path d="M387.7,88.3c0.3-0.1,0.6-0.2,0.8-0.5c0.2-0.3,0.4-0.5,0.5-0.7l6-13c0.2-0.4,0.3-0.7,0.4-0.9s0.1-0.4,0.1-0.7
			c0-0.2,0-0.3-0.1-0.3c-0.1,0-0.1-0.1-0.2-0.1v-0.7h6v0.7c-0.1,0.1-0.2,0.1-0.3,0.1c-0.1,0-0.1,0.1-0.1,0.3c0,0.2,0.1,0.4,0.2,0.6
			s0.2,0.5,0.4,0.8l6.5,13.6c0.1,0.2,0.3,0.4,0.4,0.5c0.2,0.1,0.3,0.2,0.5,0.2V89H403v-0.6c0.1,0,0.3,0,0.4-0.1
			c0.1-0.1,0.2-0.2,0.2-0.4c0-0.2,0-0.3-0.1-0.4c-0.1-0.1-0.1-0.3-0.2-0.5l-1.1-2.3h-8.6l-1.1,2.2c-0.1,0.2-0.2,0.4-0.3,0.6
			c-0.1,0.2-0.1,0.3-0.1,0.5c0,0.2,0.1,0.3,0.2,0.4c0.1,0.1,0.3,0.1,0.6,0.1V89h-5.4V88.3z M401,81.6l-3.2-6.7l-2.8,6.7H401z"/>
		<path d="M418.2,71.4v0.7c-0.6,0-0.9,0.2-0.9,0.6V86H428c0.3,0,0.6-0.1,0.8-0.2c0.2-0.1,0.3-0.4,0.3-0.6h0.7v4.2h-0.7
			c0-0.2-0.1-0.3-0.3-0.4c-0.2,0-0.5,0-0.8,0h-15.7v-0.7c0.7,0,1-0.2,1-0.6v-15c0-0.4-0.3-0.6-1-0.6v-0.7H418.2z"/>
	</g>
</g>
<g id="Layer_6">
	<g>
		<path d="M94.4,362.1c0-0.5-0.4-0.8-1.2-0.8h-9.8v4h6.2c0.5,0,0.8,0,1-0.1c0.2-0.1,0.3-0.2,0.3-0.5h0.7v4.2h-0.8
			c0.1-0.3,0-0.5-0.3-0.5c-0.3-0.1-0.7-0.1-1.2-0.1h-5.8v4.7h10.2c0.3,0,0.6-0.1,0.8-0.2s0.3-0.3,0.3-0.6h0.7v4.2h-0.7
			c0-0.2-0.1-0.4-0.3-0.4c-0.2,0-0.5,0-0.8,0H78.9v-0.7c0.1,0,0.3,0,0.4-0.1c0.1-0.1,0.2-0.2,0.2-0.5v-15c0-0.2-0.1-0.4-0.2-0.5
			c-0.1-0.1-0.3-0.1-0.4-0.1v-0.7h14.2c0.8,0,1.2-0.2,1.2-0.7h0.7v4.4H94.4z"/>
		<path d="M102.3,369.9c0,0.1,0,0.2,0,0.3c0,0.1,0,0.2,0,0.4c0,0.4,0.3,0.8,0.8,1.1c0.5,0.3,1.1,0.6,1.8,0.8
			c0.7,0.2,1.4,0.4,2.1,0.5c0.7,0.1,1.3,0.2,1.7,0.2c0.4,0,0.8,0,1.4-0.1c0.5-0.1,1.1-0.2,1.6-0.3c0.5-0.2,1-0.4,1.4-0.7
			c0.4-0.3,0.6-0.7,0.6-1.2c0-0.6-0.3-1-1-1.3c-0.7-0.3-1.5-0.5-2.5-0.6c-1-0.1-2.1-0.3-3.2-0.4c-1.1-0.1-2.2-0.4-3.2-0.7
			c-1-0.3-1.8-0.8-2.5-1.4c-0.7-0.6-1-1.5-1-2.7c0-1.7,0.7-3.1,2.1-4.1c1.4-1,3.4-1.5,6-1.5c1.3,0,2.3,0.1,3.2,0.3
			c0.9,0.2,1.6,0.4,2.3,0.7c0.6,0.2,1.1,0.5,1.5,0.7c0.4,0.2,0.7,0.3,0.9,0.3c0.2,0,0.4,0,0.5-0.1s0.2-0.1,0.4-0.2l0.4,0.4l-2,3.8
			l-0.7-0.2c0-0.2-0.1-0.3-0.1-0.5c0-0.2-0.1-0.3-0.4-0.5c-0.5-0.5-1.4-0.8-2.5-1.2c-1.1-0.3-2.4-0.5-3.8-0.5c-0.5,0-1,0-1.5,0.1
			c-0.5,0.1-0.9,0.2-1.3,0.3c-0.4,0.2-0.7,0.4-0.9,0.6c-0.2,0.3-0.3,0.6-0.3,0.9c0,0.6,0.3,1,1,1.3c0.7,0.3,1.5,0.5,2.5,0.6
			c1,0.1,2.1,0.3,3.2,0.4c1.1,0.1,2.2,0.4,3.2,0.7c1,0.3,1.8,0.9,2.5,1.5c0.7,0.7,1,1.6,1,2.8c0,1.2-0.3,2.1-0.9,2.9
			c-0.6,0.7-1.3,1.3-2.1,1.8c-0.9,0.4-1.8,0.7-2.8,0.8c-1,0.1-2,0.2-2.9,0.2c-0.9,0-1.8-0.1-2.7-0.3c-0.9-0.2-1.7-0.4-2.4-0.6
			c-0.7-0.2-1.4-0.4-1.9-0.6c-0.5-0.2-0.8-0.3-0.9-0.3c-0.2,0-0.3,0.1-0.5,0.2l-0.6-0.4l1.8-4.5L102.3,369.9z"/>
		<path d="M127.6,375.3c0.1,0,0.3,0,0.4-0.1c0.1-0.1,0.2-0.2,0.2-0.5v-13.3H123c-0.2,0-0.4,0.1-0.6,0.2c-0.2,0.1-0.3,0.3-0.3,0.5
			h-0.7v-4.6h0.7c0,0.4,0.1,0.6,0.3,0.8s0.4,0.2,0.6,0.2h14.2c0.2,0,0.4-0.1,0.6-0.2c0.2-0.1,0.3-0.4,0.3-0.8h0.7v4.6h-0.7
			c0-0.2-0.1-0.4-0.3-0.5c-0.2-0.1-0.4-0.2-0.6-0.2h-5.2v13.3c0,0.4,0.2,0.6,0.7,0.6v0.7h-5.2V375.3z"/>
		<path d="M143.4,373.4c0-0.8,0.3-1.4,0.8-2c0.6-0.6,1.2-0.8,2-0.8c0.8,0,1.4,0.3,2,0.8c0.6,0.6,0.8,1.2,0.8,2s-0.3,1.4-0.8,1.9
			c-0.6,0.5-1.2,0.8-2,0.8c-0.8,0-1.4-0.3-2-0.8C143.7,374.8,143.4,374.2,143.4,373.4z"/>
	</g>
</g>
<g id="Layer_7">
	<g>
		<path d="M62.4,421.8c-0.3,0.4-0.6,0.8-0.9,1.3c-0.3,0.4-0.7,0.8-1.1,1.1c-0.4,0.3-0.8,0.6-1.3,0.8c-0.5,0.2-1,0.3-1.7,0.3
			c-0.7,0-1.4-0.1-2.1-0.4c-0.7-0.3-1.3-0.6-2-0.9c-0.6-0.4-1.3-0.7-2.1-1c-0.7-0.3-1.6-0.4-2.5-0.4c-0.4,0-0.8,0.1-1.2,0.3
			c-0.3,0.2-0.7,0.4-0.9,0.7c-0.3,0.3-0.5,0.6-0.7,0.9c-0.2,0.3-0.4,0.7-0.5,1l-1.4-2.7c0.2-0.4,0.5-0.8,0.8-1.3
			c0.3-0.4,0.6-0.8,1.1-1.1c0.4-0.3,0.9-0.6,1.4-0.8s1.1-0.3,1.8-0.3c0.7,0,1.4,0.1,2.2,0.4c0.7,0.3,1.5,0.6,2.3,0.9
			c0.7,0.3,1.5,0.6,2.2,1c0.7,0.3,1.3,0.5,1.9,0.5c0.4,0,0.8-0.1,1.1-0.3c0.3-0.2,0.6-0.4,0.9-0.7c0.3-0.3,0.5-0.6,0.8-0.9
			c0.2-0.3,0.5-0.7,0.7-1L62.4,421.8z"/>
		<path d="M74.3,430.5c0.3,0,0.5-0.1,0.7-0.2c0.2-0.1,0.3-0.4,0.3-0.9V416c-0.2,0-0.4,0-0.7,0c-0.3,0-0.5,0.1-0.7,0.1
			c-0.2,0.1-0.5,0.2-0.7,0.3c-0.2,0.1-0.3,0.3-0.4,0.5h-0.5v-5h0.5c0,0.2,0.1,0.4,0.4,0.5c0.2,0.1,0.5,0.1,0.7,0.1
			c0.5,0,0.8-0.1,1.1-0.4c0.3-0.3,0.5-0.6,0.5-1c0-0.4-0.1-0.6-0.3-0.7c-0.2-0.1-0.4-0.2-0.7-0.2v-0.5H81v0.5
			c-0.3,0.1-0.6,0.1-0.8,0.3c-0.2,0.1-0.3,0.3-0.3,0.6v18.3c0,0.5,0.1,0.8,0.3,0.9c0.2,0.1,0.5,0.2,0.7,0.2v0.5h-6.6V430.5z"/>
		<path d="M94.2,424.8l0.5,0.2c0,0.1,0,0.3,0.1,0.5c0,0.2,0.1,0.3,0.2,0.5c0.3,0.3,0.6,0.6,1.1,0.9c0.5,0.3,0.9,0.5,1.5,0.6
			c0.5,0.2,1,0.3,1.6,0.3c0.5,0.1,1,0.1,1.4,0.1c4.2,0,6.4-2.1,6.6-6.3c-1.1,0.6-2.2,1-3.4,1.4c-1.1,0.4-2.3,0.6-3.5,0.6
			c-1,0-1.9-0.1-3-0.4c-1-0.2-1.9-0.6-2.7-1.1c-0.8-0.5-1.5-1.2-2-2s-0.8-1.8-0.8-2.9c0-1.4,0.3-2.5,0.9-3.5s1.4-1.8,2.3-2.4
			c1-0.6,2-1.1,3.2-1.4c1.2-0.3,2.4-0.4,3.5-0.4c1.5,0,2.8,0.2,4,0.7c1.2,0.5,2.3,1.2,3.1,2.1s1.6,2,2,3.2c0.5,1.2,0.7,2.6,0.7,4
			c0,1.7-0.3,3.3-0.8,4.7c-0.5,1.4-1.3,2.6-2.3,3.6c-1,1-2.2,1.8-3.6,2.3c-1.4,0.5-3,0.8-4.7,0.8c-1.2,0-2.2-0.1-3.1-0.3
			c-0.8-0.2-1.5-0.4-2.1-0.6c-0.6-0.3-1-0.5-1.4-0.7c-0.3-0.2-0.6-0.3-0.8-0.3c-0.3,0-0.5,0.1-0.8,0.2l-0.3-0.3L94.2,424.8z
			 M101.4,413.2c-0.6,0-1.3,0.1-1.9,0.2c-0.6,0.1-1.2,0.3-1.6,0.6c-0.5,0.3-0.9,0.7-1.1,1.1c-0.3,0.5-0.4,1-0.4,1.7
			c0,0.7,0.1,1.3,0.4,1.7c0.3,0.5,0.7,0.8,1.1,1.1s1,0.5,1.6,0.6c0.6,0.1,1.2,0.2,1.9,0.2c0.6,0,1.3-0.1,1.9-0.2s1.2-0.3,1.6-0.6
			s0.9-0.7,1.1-1.1c0.3-0.5,0.4-1,0.4-1.7c0-0.7-0.1-1.3-0.4-1.7c-0.3-0.5-0.7-0.8-1.1-1.1c-0.5-0.3-1-0.5-1.6-0.6
			S102.1,413.2,101.4,413.2z"/>
		<path d="M117.4,413.6c-0.3,0-0.6,0.1-0.8,0.2c-0.3,0.1-0.4,0.4-0.4,0.8h-0.5v-5.4h0.5c0,0.3,0.1,0.5,0.4,0.6
			c0.3,0.1,0.5,0.1,0.8,0.1h16.8c0.8,0,1.2-0.2,1.2-0.7h0.5v3.6l-9.4,15.1c-0.3,0.4-0.5,0.8-0.8,1.1c-0.2,0.3-0.4,0.6-0.4,0.8
			c0,0.4,0.3,0.6,0.8,0.6v0.5h-7.2v-0.5c0.2,0,0.5-0.1,0.8-0.3c0.3-0.2,0.6-0.5,0.7-0.8l10-15.8H117.4z"/>
		<path d="M156.1,419.8c1.4,0.3,2.5,0.8,3.4,1.6c0.9,0.8,1.3,1.9,1.3,3.4c0,1.4-0.4,2.5-1.1,3.3c-0.7,0.8-1.6,1.5-2.7,2
			c-1.1,0.5-2.2,0.8-3.4,0.9c-1.2,0.1-2.3,0.2-3.3,0.2c-1,0-2.1-0.1-3.3-0.2c-1.1-0.2-2.2-0.5-3.1-0.9s-1.8-1.1-2.4-1.9
			c-0.6-0.8-0.9-1.7-0.9-2.9c0-0.9,0.1-1.6,0.3-2.1c0.2-0.6,0.6-1.1,1-1.5c0.4-0.4,0.9-0.7,1.5-1s1.3-0.5,2-0.7v-0.1
			c-1.1-0.2-2-0.7-2.8-1.4c-0.8-0.7-1.2-1.7-1.2-2.9c0-1.3,0.3-2.3,0.9-3c0.6-0.7,1.3-1.3,2.2-1.7c0.9-0.4,1.9-0.7,3-0.8
			c1.1-0.1,2.1-0.2,3-0.2c0.9,0,1.9,0.1,3,0.2c1.1,0.1,2.1,0.4,3.1,0.8c0.9,0.4,1.7,1,2.4,1.7c0.6,0.7,1,1.7,1,2.9
			c0,1.3-0.4,2.3-1.1,2.9C158.2,418.9,157.2,419.4,156.1,419.8L156.1,419.8L156.1,419.8z M150.6,421.3c-3.8,0-5.7,1.1-5.7,3.3
			c0,2.2,1.9,3.3,5.7,3.3c3.8,0,5.7-1.1,5.7-3.3C156.4,422.4,154.5,421.3,150.6,421.3z M150.7,412.8c-1.8,0-3,0.2-3.8,0.6
			c-0.7,0.4-1.1,1.1-1.1,2s0.4,1.6,1.1,2c0.7,0.4,2,0.6,3.8,0.6c1.8,0,3-0.2,3.8-0.6c0.7-0.4,1.1-1.1,1.1-2s-0.4-1.6-1.1-2
			C153.7,413,152.4,412.8,150.7,412.8z"/>
		<path d="M184.1,421.8c-0.3,0.4-0.6,0.8-0.9,1.3c-0.3,0.4-0.7,0.8-1.1,1.1c-0.4,0.3-0.8,0.6-1.3,0.8c-0.5,0.2-1,0.3-1.7,0.3
			c-0.7,0-1.4-0.1-2.1-0.4c-0.7-0.3-1.3-0.6-2-0.9c-0.6-0.4-1.3-0.7-2.1-1c-0.7-0.3-1.6-0.4-2.5-0.4c-0.4,0-0.8,0.1-1.2,0.3
			c-0.3,0.2-0.7,0.4-0.9,0.7c-0.3,0.3-0.5,0.6-0.7,0.9c-0.2,0.3-0.4,0.7-0.5,1l-1.4-2.7c0.2-0.4,0.5-0.8,0.8-1.3
			c0.3-0.4,0.6-0.8,1.1-1.1c0.4-0.3,0.9-0.6,1.4-0.8s1.1-0.3,1.8-0.3c0.7,0,1.4,0.1,2.2,0.4c0.7,0.3,1.5,0.6,2.3,0.9
			c0.7,0.3,1.5,0.6,2.2,1c0.7,0.3,1.3,0.5,1.9,0.5c0.4,0,0.8-0.1,1.1-0.3c0.3-0.2,0.6-0.4,0.9-0.7c0.3-0.3,0.5-0.6,0.8-0.9
			c0.2-0.3,0.5-0.7,0.7-1L184.1,421.8z"/>
	</g>
</g>
<g id="Layer_5">
	<g>
		<path d="M288.6,145.7c0-0.2-0.1-0.4-0.3-0.5c-0.2-0.1-0.4-0.1-0.6-0.1v-0.7h12.4c1,0,1.9,0.1,2.6,0.4c0.7,0.2,1.3,0.6,1.8,1
			c0.5,0.4,0.9,0.9,1.1,1.4c0.2,0.5,0.4,1.1,0.4,1.7c0,0.5-0.1,0.9-0.2,1.3c-0.2,0.4-0.4,0.8-0.6,1.1c-0.3,0.3-0.5,0.6-0.8,0.9
			s-0.6,0.5-0.9,0.6v0c0.4,0.2,0.7,0.4,1.1,0.6c0.4,0.3,0.7,0.6,1,1c0.3,0.4,0.5,0.8,0.7,1.3c0.2,0.5,0.3,1,0.3,1.6
			c0,0.6-0.1,1.2-0.4,1.8c-0.2,0.6-0.6,1.1-1.1,1.5c-0.5,0.4-1.2,0.8-2,1c-0.8,0.3-1.8,0.4-3,0.4h-12.3v-0.7c0.2,0,0.4,0,0.6-0.1
			c0.2-0.1,0.3-0.2,0.3-0.5V145.7z M299.6,151.4c0.6,0,1.2-0.1,1.8-0.4c0.6-0.3,0.8-0.8,0.8-1.6c0-0.4-0.1-0.8-0.2-1
			c-0.2-0.3-0.4-0.5-0.6-0.6c-0.2-0.1-0.5-0.2-0.8-0.3c-0.3,0-0.6-0.1-1-0.1h-7.1v4H299.6z M299.5,159c1.2,0,2.1-0.2,2.5-0.6
			c0.5-0.4,0.7-1,0.7-1.7c0-0.8-0.3-1.4-0.9-1.8c-0.6-0.4-1.6-0.6-3-0.6h-6.4v4.7H299.5z"/>
		<path d="M323.5,144.4c2.4,0,4.2,0.4,5.6,1.2c1.3,0.8,2,2.1,2,4c0,0.7-0.1,1.4-0.4,1.9c-0.3,0.6-0.6,1-1.1,1.5
			c-0.4,0.4-0.9,0.7-1.5,1c-0.5,0.3-1.1,0.4-1.6,0.6l3.9,5.7c0.2,0.3,0.4,0.5,0.7,0.7c0.3,0.1,0.5,0.3,0.8,0.3v0.7h-6.1v-0.7
			c0.3,0,0.5-0.1,0.5-0.4c0-0.3-0.2-0.7-0.6-1.2l-3.2-4.7H317v5.7c0,0.2,0.1,0.4,0.3,0.5c0.2,0.1,0.3,0.1,0.5,0.1v0.7h-5.3v-0.7
			c0.5,0,0.7-0.2,0.7-0.6v-15c0-0.4-0.2-0.6-0.7-0.6v-0.7H323.5z M323.4,152c2.6,0,3.9-0.8,3.9-2.5c0-0.7-0.3-1.2-0.9-1.6
			c-0.6-0.4-1.6-0.6-3-0.6h-6.3v4.6H323.4z"/>
		<path d="M334.4,161.3c0.3-0.1,0.6-0.2,0.8-0.5c0.2-0.3,0.4-0.5,0.5-0.7l6-13c0.2-0.4,0.3-0.7,0.4-0.9s0.1-0.4,0.1-0.7
			c0-0.2,0-0.3-0.1-0.3c-0.1,0-0.1-0.1-0.2-0.1v-0.7h6v0.7c-0.1,0.1-0.2,0.1-0.3,0.1c-0.1,0-0.1,0.1-0.1,0.3c0,0.2,0.1,0.4,0.2,0.6
			s0.2,0.5,0.4,0.8l6.5,13.6c0.1,0.2,0.3,0.4,0.4,0.5c0.2,0.1,0.3,0.2,0.5,0.2v0.7h-5.7v-0.6c0.1,0,0.3,0,0.4-0.1
			c0.1-0.1,0.2-0.2,0.2-0.4c0-0.2,0-0.3-0.1-0.4c-0.1-0.1-0.1-0.3-0.2-0.5l-1.1-2.3h-8.6l-1.1,2.2c-0.1,0.2-0.2,0.4-0.3,0.6
			c-0.1,0.2-0.1,0.3-0.1,0.5c0,0.2,0.1,0.3,0.2,0.4c0.1,0.1,0.3,0.1,0.6,0.1v0.7h-5.4V161.3z M347.7,154.6l-3.2-6.7l-2.8,6.7H347.7z
			"/>
		<path d="M359.2,161.3c0.5,0,0.7-0.2,0.7-0.6v-15c0-0.4-0.2-0.6-0.7-0.6v-0.7h5.9v0.7c-0.2,0-0.3,0.1-0.3,0.2
			c0,0.1,0.3,0.5,0.9,1.1l9.6,10.2v-10.8c0-0.4-0.3-0.6-0.8-0.6v-0.7h4.9v0.7c-0.5,0-0.7,0.2-0.7,0.6v15c0,0.4,0.2,0.6,0.7,0.6v0.7
			h-5.2v-0.7c0.2,0,0.3-0.1,0.3-0.2c0-0.1-0.1-0.3-0.4-0.6c-0.3-0.3-0.5-0.6-0.9-0.9l-9.9-10.6v11.6c0,0.4,0.3,0.6,0.8,0.6v0.7h-4.9
			V161.3z"/>
		<path d="M385.4,161.3c0.6,0,0.9-0.2,0.9-0.6v-15c0-0.4-0.3-0.6-0.9-0.6v-0.7h11.1c1.6,0,2.9,0.3,4,0.8c1.1,0.5,2,1.2,2.7,2
			c0.7,0.8,1.2,1.7,1.6,2.8c0.3,1.1,0.5,2.1,0.5,3.3c0,1.1-0.2,2.2-0.5,3.3c-0.3,1.1-0.8,2-1.5,2.8c-0.7,0.8-1.6,1.5-2.7,2
			c-1.1,0.5-2.4,0.8-4,0.8h-11.3V161.3z M395.3,159c0.8,0,1.6-0.1,2.4-0.2c0.7-0.1,1.4-0.4,2-0.8c0.6-0.4,1-1,1.3-1.8
			c0.3-0.8,0.5-1.8,0.5-3.2c0-1.3-0.2-2.4-0.5-3.1c-0.3-0.8-0.8-1.3-1.3-1.7c-0.6-0.4-1.2-0.6-2-0.7c-0.7-0.1-1.5-0.1-2.4-0.1h-5.2
			V159H395.3z"/>
	</g>
</g>
</svg>
